<svg width="209" height="69" viewBox="0 0 209 69" fill="none" xmlns="http://www.w3.org/2000/svg">
<path d="M47.682 43.1799L64 60.251V22.092L47.682 43.1799Z" fill="#765D21"/>
<path d="M3.99997 60V22.5941L20.8201 43.6546L3.99997 60Z" fill="#765D21"/>
<g filter="url(#filter0_f_7_11)">
<ellipse cx="15.8773" cy="5.99784" rx="15.8773" ry="5.99784" transform="matrix(-0.604787 -0.796387 -0.796387 0.604787 29.1233 40.1984)" fill="#2C2C2C" fill-opacity="0.1"/>
</g>
<g filter="url(#filter1_f_7_11)">
<ellipse cx="51.8507" cy="28.6217" rx="16.0973" ry="8.71232" transform="rotate(-52.1123 51.8507 28.6217)" fill="#2C2C2C" fill-opacity="0.1"/>
</g>
<g filter="url(#filter2_d_7_11)">
<path d="M33.8744 37.6569L3.99997 0V22.8452L20.8201 43.9056L33.8744 60.251L47.623 43.1799L64 22.8452V0L33.8744 37.6569Z" fill="url(#paint0_linear_7_11)"/>
</g>
<path d="M85.9701 59.97C85.7501 59.97 85.5434 59.93 85.3501 59.85C85.1501 59.77 84.9934 59.6567 84.8801 59.51L85.0401 59.36C85.1534 59.5067 85.2901 59.6133 85.4501 59.68C85.6101 59.7467 85.7934 59.78 86.0001 59.78C86.2401 59.78 86.4667 59.71 86.6801 59.57C86.8934 59.4367 87.1234 59.1833 87.3701 58.81L87.9501 57.93L88.0101 57.86L91.3001 52.83H91.5401L87.5501 58.9C87.3634 59.1733 87.1867 59.3867 87.0201 59.54C86.8601 59.7 86.6934 59.81 86.5201 59.87C86.3534 59.9367 86.1701 59.97 85.9701 59.97ZM87.9601 58.11L86.5801 52.83H86.7901L88.0901 57.86L87.9601 58.11ZM93.6217 58.03C93.175 58.03 92.785 57.9467 92.4517 57.78C92.125 57.6067 91.8717 57.3633 91.6917 57.05C91.5117 56.73 91.4217 56.3567 91.4217 55.93C91.4217 55.33 91.545 54.7967 91.7917 54.33C92.045 53.8567 92.3917 53.4833 92.8317 53.21C93.2717 52.9367 93.775 52.8 94.3417 52.8C94.795 52.8 95.185 52.8867 95.5117 53.06C95.8384 53.2267 96.0917 53.4667 96.2717 53.78C96.4517 54.0933 96.5417 54.4667 96.5417 54.9C96.5417 55.5 96.415 56.0367 96.1617 56.51C95.915 56.9767 95.5717 57.3467 95.1317 57.62C94.6917 57.8933 94.1884 58.03 93.6217 58.03ZM93.6517 57.84C94.1717 57.84 94.6317 57.7133 95.0317 57.46C95.4384 57.2067 95.7584 56.86 95.9917 56.42C96.225 55.9733 96.3417 55.47 96.3417 54.91C96.3417 54.2967 96.1617 53.8233 95.8017 53.49C95.4484 53.1567 94.9517 52.99 94.3117 52.99C93.7984 52.99 93.3384 53.12 92.9317 53.38C92.525 53.6333 92.205 53.98 91.9717 54.42C91.7384 54.86 91.6217 55.36 91.6217 55.92C91.6217 56.5267 91.7984 57 92.1517 57.34C92.5117 57.6733 93.0117 57.84 93.6517 57.84ZM99.7652 58.03C99.2919 58.03 98.9119 57.94 98.6252 57.76C98.3452 57.5733 98.1552 57.32 98.0552 57C97.9619 56.6733 97.9552 56.3 98.0352 55.88L98.6452 52.83H98.8452L98.2352 55.88C98.1152 56.4867 98.1852 56.9667 98.4452 57.32C98.7052 57.6667 99.1519 57.84 99.7852 57.84C100.439 57.84 100.982 57.66 101.415 57.3C101.849 56.9333 102.135 56.4 102.275 55.7L102.845 52.83H103.045L102.015 58H101.815L102.115 56.5L102.215 56.45C101.969 56.9967 101.632 57.3967 101.205 57.65C100.785 57.9033 100.305 58.03 99.7652 58.03ZM104.306 58L105.336 52.83H105.536L105.216 54.43L105.166 54.38C105.379 53.8867 105.683 53.5 106.076 53.22C106.469 52.94 106.969 52.8 107.576 52.8L107.536 53C107.523 53 107.506 53 107.486 53C107.473 53 107.459 53 107.446 53C106.813 53 106.293 53.1967 105.886 53.59C105.479 53.9767 105.199 54.5467 105.046 55.3L104.506 58H104.306ZM112.004 58.03C111.731 58.03 111.507 57.9767 111.334 57.87C111.161 57.7567 111.044 57.6 110.984 57.4C110.931 57.1933 110.931 56.9467 110.984 56.66L111.974 51.7H112.174L111.194 56.61C111.107 57.0233 111.134 57.3333 111.274 57.54C111.414 57.74 111.664 57.84 112.024 57.84C112.197 57.84 112.361 57.8133 112.514 57.76C112.667 57.7067 112.807 57.6267 112.934 57.52L113.044 57.66C112.904 57.7867 112.741 57.88 112.554 57.94C112.367 58 112.184 58.03 112.004 58.03ZM110.714 53.02L110.744 52.83H113.694L113.664 53.02H110.714ZM116.466 58.03C115.992 58.03 115.582 57.9467 115.236 57.78C114.896 57.6133 114.636 57.3733 114.456 57.06C114.276 56.74 114.186 56.3533 114.186 55.9C114.186 55.3133 114.306 54.7867 114.546 54.32C114.786 53.8533 115.112 53.4833 115.526 53.21C115.946 52.9367 116.419 52.8 116.946 52.8C117.386 52.8 117.762 52.8833 118.076 53.05C118.389 53.2167 118.629 53.4567 118.796 53.77C118.969 54.0833 119.056 54.46 119.056 54.9C119.056 54.9867 119.049 55.0767 119.036 55.17C119.029 55.2567 119.019 55.3367 119.006 55.41H114.346L114.386 55.22H118.916L118.836 55.33C118.916 54.8233 118.882 54.3967 118.736 54.05C118.589 53.7033 118.359 53.44 118.046 53.26C117.739 53.08 117.372 52.99 116.946 52.99C116.459 52.99 116.019 53.1167 115.626 53.37C115.239 53.6233 114.932 53.97 114.706 54.41C114.486 54.8433 114.376 55.34 114.376 55.9C114.376 56.5267 114.556 57.0067 114.916 57.34C115.276 57.6733 115.796 57.84 116.476 57.84C116.869 57.84 117.229 57.7733 117.556 57.64C117.882 57.5 118.149 57.31 118.356 57.07L118.476 57.2C118.269 57.4467 117.986 57.6467 117.626 57.8C117.272 57.9533 116.886 58.03 116.466 58.03ZM122.314 58.03C121.848 58.03 121.444 57.9467 121.104 57.78C120.771 57.6067 120.514 57.3633 120.334 57.05C120.154 56.73 120.064 56.3567 120.064 55.93C120.064 55.3233 120.191 54.7867 120.444 54.32C120.698 53.8467 121.044 53.4767 121.484 53.21C121.924 52.9367 122.428 52.8 122.994 52.8C123.428 52.8 123.801 52.8733 124.114 53.02C124.434 53.1667 124.678 53.3833 124.844 53.67L124.694 53.79C124.521 53.5167 124.291 53.3167 124.004 53.19C123.718 53.0567 123.378 52.99 122.984 52.99C122.458 52.99 121.988 53.12 121.574 53.38C121.168 53.6333 120.848 53.98 120.614 54.42C120.381 54.86 120.264 55.36 120.264 55.92C120.264 56.5267 120.444 57 120.804 57.34C121.164 57.6733 121.678 57.84 122.344 57.84C122.718 57.84 123.064 57.7733 123.384 57.64C123.704 57.5 123.968 57.3067 124.174 57.06L124.294 57.2C124.081 57.4667 123.798 57.6733 123.444 57.82C123.091 57.96 122.714 58.03 122.314 58.03ZM128.856 52.8C129.336 52.8 129.719 52.8933 130.006 53.08C130.293 53.26 130.486 53.5133 130.586 53.84C130.686 54.16 130.693 54.53 130.606 54.95L129.996 58H129.796L130.406 54.95C130.526 54.3433 130.453 53.8667 130.186 53.52C129.926 53.1667 129.476 52.99 128.836 52.99C128.183 52.99 127.636 53.1733 127.196 53.54C126.756 53.9 126.466 54.43 126.326 55.13L125.756 58H125.556L127.036 50.58H127.236L126.486 54.33L126.386 54.38C126.633 53.8267 126.969 53.4267 127.396 53.18C127.823 52.9267 128.309 52.8 128.856 52.8ZM135.536 52.8C136.016 52.8 136.399 52.8933 136.686 53.08C136.972 53.26 137.166 53.5133 137.266 53.84C137.366 54.16 137.372 54.53 137.286 54.95L136.676 58H136.476L137.086 54.95C137.206 54.3433 137.132 53.8667 136.866 53.52C136.606 53.1667 136.156 52.99 135.516 52.99C134.862 52.99 134.316 53.1733 133.876 53.54C133.436 53.9 133.146 54.43 133.006 55.13L132.436 58H132.236L133.266 52.83H133.466L133.166 54.33L133.066 54.38C133.312 53.8267 133.649 53.4267 134.076 53.18C134.502 52.9267 134.989 52.8 135.536 52.8ZM140.975 58.03C140.529 58.03 140.139 57.9467 139.805 57.78C139.479 57.6067 139.225 57.3633 139.045 57.05C138.865 56.73 138.775 56.3567 138.775 55.93C138.775 55.33 138.899 54.7967 139.145 54.33C139.399 53.8567 139.745 53.4833 140.185 53.21C140.625 52.9367 141.129 52.8 141.695 52.8C142.149 52.8 142.539 52.8867 142.865 53.06C143.192 53.2267 143.445 53.4667 143.625 53.78C143.805 54.0933 143.895 54.4667 143.895 54.9C143.895 55.5 143.769 56.0367 143.515 56.51C143.269 56.9767 142.925 57.3467 142.485 57.62C142.045 57.8933 141.542 58.03 140.975 58.03ZM141.005 57.84C141.525 57.84 141.985 57.7133 142.385 57.46C142.792 57.2067 143.112 56.86 143.345 56.42C143.579 55.9733 143.695 55.47 143.695 54.91C143.695 54.2967 143.515 53.8233 143.155 53.49C142.802 53.1567 142.305 52.99 141.665 52.99C141.152 52.99 140.692 53.12 140.285 53.38C139.879 53.6333 139.559 53.98 139.325 54.42C139.092 54.86 138.975 55.36 138.975 55.92C138.975 56.5267 139.152 57 139.505 57.34C139.865 57.6733 140.365 57.84 141.005 57.84ZM145.019 58L146.499 50.58H146.699L145.219 58H145.019ZM149.579 58.03C149.132 58.03 148.742 57.9467 148.409 57.78C148.082 57.6067 147.829 57.3633 147.649 57.05C147.469 56.73 147.379 56.3567 147.379 55.93C147.379 55.33 147.502 54.7967 147.749 54.33C148.002 53.8567 148.349 53.4833 148.789 53.21C149.229 52.9367 149.732 52.8 150.299 52.8C150.752 52.8 151.142 52.8867 151.469 53.06C151.795 53.2267 152.049 53.4667 152.229 53.78C152.409 54.0933 152.499 54.4667 152.499 54.9C152.499 55.5 152.372 56.0367 152.119 56.51C151.872 56.9767 151.529 57.3467 151.089 57.62C150.649 57.8933 150.145 58.03 149.579 58.03ZM149.609 57.84C150.129 57.84 150.589 57.7133 150.989 57.46C151.395 57.2067 151.715 56.86 151.949 56.42C152.182 55.9733 152.299 55.47 152.299 54.91C152.299 54.2967 152.119 53.8233 151.759 53.49C151.405 53.1567 150.909 52.99 150.269 52.99C149.755 52.99 149.295 53.12 148.889 53.38C148.482 53.6333 148.162 53.98 147.929 54.42C147.695 54.86 147.579 55.36 147.579 55.92C147.579 56.5267 147.755 57 148.109 57.34C148.469 57.6733 148.969 57.84 149.609 57.84ZM155.362 59.97C154.896 59.97 154.476 59.8933 154.102 59.74C153.729 59.5867 153.429 59.3767 153.202 59.11L153.382 58.97C153.596 59.2367 153.872 59.4367 154.212 59.57C154.559 59.71 154.946 59.78 155.372 59.78C156.119 59.78 156.706 59.6033 157.132 59.25C157.566 58.8967 157.856 58.3367 158.002 57.57L158.332 55.91L158.552 55.31L158.572 54.71L158.942 52.83H159.142L158.202 57.54C158.036 58.3933 157.722 59.01 157.262 59.39C156.809 59.7767 156.176 59.97 155.362 59.97ZM155.732 57.83C155.272 57.83 154.876 57.75 154.542 57.59C154.209 57.4233 153.952 57.19 153.772 56.89C153.592 56.5833 153.502 56.2233 153.502 55.81C153.502 55.3767 153.572 54.98 153.712 54.62C153.859 54.2533 154.062 53.9333 154.322 53.66C154.589 53.3867 154.902 53.1767 155.262 53.03C155.622 52.8767 156.016 52.8 156.442 52.8C156.902 52.8 157.296 52.88 157.622 53.04C157.949 53.2 158.199 53.43 158.372 53.73C158.546 54.03 158.632 54.3933 158.632 54.82C158.639 55.3867 158.519 55.8967 158.272 56.35C158.026 56.8033 157.682 57.1633 157.242 57.43C156.809 57.6967 156.306 57.83 155.732 57.83ZM155.752 57.64C156.279 57.64 156.746 57.52 157.152 57.28C157.559 57.0333 157.879 56.7 158.112 56.28C158.352 55.8533 158.472 55.37 158.472 54.83C158.472 54.2433 158.292 53.79 157.932 53.47C157.572 53.15 157.069 52.99 156.422 52.99C155.902 52.99 155.436 53.1133 155.022 53.36C154.616 53.6 154.292 53.9333 154.052 54.36C153.819 54.78 153.702 55.26 153.702 55.8C153.702 56.3867 153.882 56.84 154.242 57.16C154.602 57.48 155.106 57.64 155.752 57.64ZM159.73 59.97C159.51 59.97 159.303 59.93 159.11 59.85C158.91 59.77 158.753 59.6567 158.64 59.51L158.8 59.36C158.913 59.5067 159.05 59.6133 159.21 59.68C159.37 59.7467 159.553 59.78 159.76 59.78C160 59.78 160.227 59.71 160.44 59.57C160.653 59.4367 160.883 59.1833 161.13 58.81L161.71 57.93L161.77 57.86L165.06 52.83H165.3L161.31 58.9C161.123 59.1733 160.947 59.3867 160.78 59.54C160.62 59.7 160.453 59.81 160.28 59.87C160.113 59.9367 159.93 59.97 159.73 59.97ZM161.72 58.11L160.34 52.83H160.55L161.85 57.86L161.72 58.11ZM170.638 58.03C170.178 58.03 169.788 57.9467 169.468 57.78C169.148 57.6133 168.905 57.3767 168.738 57.07C168.571 56.7567 168.485 56.3833 168.478 55.95C168.478 55.35 168.598 54.8133 168.838 54.34C169.078 53.8667 169.415 53.4933 169.848 53.22C170.288 52.94 170.791 52.8 171.358 52.8C171.811 52.8 172.201 52.8867 172.528 53.06C172.855 53.2267 173.108 53.4667 173.288 53.78C173.468 54.0933 173.558 54.4667 173.558 54.9C173.558 55.3467 173.485 55.76 173.338 56.14C173.198 56.52 172.998 56.8533 172.738 57.14C172.478 57.42 172.168 57.64 171.808 57.8C171.455 57.9533 171.065 58.03 170.638 58.03ZM167.578 59.94L168.998 52.83H169.198L168.838 54.63L168.578 55.33L168.548 56.1L167.778 59.94H167.578ZM170.668 57.84C171.188 57.84 171.648 57.7133 172.048 57.46C172.455 57.2067 172.775 56.86 173.008 56.42C173.241 55.9733 173.358 55.47 173.358 54.91C173.358 54.2967 173.178 53.8233 172.818 53.49C172.465 53.1567 171.968 52.99 171.328 52.99C170.815 52.99 170.355 53.1167 169.948 53.37C169.541 53.6233 169.221 53.97 168.988 54.41C168.755 54.85 168.638 55.3533 168.638 55.92C168.638 56.5267 168.815 57 169.168 57.34C169.528 57.6733 170.028 57.84 170.668 57.84ZM176.737 58.03C176.29 58.03 175.9 57.9467 175.567 57.78C175.24 57.6067 174.987 57.3633 174.807 57.05C174.627 56.73 174.537 56.3567 174.537 55.93C174.537 55.4833 174.607 55.07 174.747 54.69C174.894 54.31 175.097 53.98 175.357 53.7C175.617 53.4133 175.924 53.1933 176.277 53.04C176.637 52.88 177.03 52.8 177.457 52.8C177.917 52.8 178.307 52.8833 178.627 53.05C178.947 53.2167 179.19 53.4567 179.357 53.77C179.53 54.0767 179.617 54.4467 179.617 54.88C179.624 55.4733 179.504 56.01 179.257 56.49C179.017 56.9633 178.68 57.34 178.247 57.62C177.814 57.8933 177.31 58.03 176.737 58.03ZM176.767 57.84C177.287 57.84 177.747 57.7133 178.147 57.46C178.554 57.2067 178.874 56.86 179.107 56.42C179.34 55.9733 179.457 55.47 179.457 54.91C179.457 54.2967 179.277 53.8233 178.917 53.49C178.564 53.1567 178.067 52.99 177.427 52.99C176.914 52.99 176.454 53.12 176.047 53.38C175.64 53.6333 175.32 53.98 175.087 54.42C174.854 54.86 174.737 55.36 174.737 55.92C174.737 56.5267 174.914 57 175.267 57.34C175.627 57.6733 176.127 57.84 176.767 57.84ZM178.897 58L179.257 56.2L179.517 55.5L179.547 54.73L179.927 52.83H180.127L179.097 58H178.897ZM181.386 58L182.416 52.83H182.616L182.296 54.43L182.246 54.38C182.459 53.8867 182.763 53.5 183.156 53.22C183.549 52.94 184.049 52.8 184.656 52.8L184.616 53C184.603 53 184.586 53 184.566 53C184.553 53 184.539 53 184.526 53C183.893 53 183.373 53.1967 182.966 53.59C182.559 53.9767 182.279 54.5467 182.126 55.3L181.586 58H181.386ZM186.731 58.03C186.457 58.03 186.234 57.9767 186.061 57.87C185.887 57.7567 185.771 57.6 185.711 57.4C185.657 57.1933 185.657 56.9467 185.711 56.66L186.701 51.7H186.901L185.921 56.61C185.834 57.0233 185.861 57.3333 186.001 57.54C186.141 57.74 186.391 57.84 186.751 57.84C186.924 57.84 187.087 57.8133 187.241 57.76C187.394 57.7067 187.534 57.6267 187.661 57.52L187.771 57.66C187.631 57.7867 187.467 57.88 187.281 57.94C187.094 58 186.911 58.03 186.731 58.03ZM185.441 53.02L185.471 52.83H188.421L188.391 53.02H185.441ZM192.537 52.8C193.017 52.8 193.401 52.8933 193.687 53.08C193.974 53.26 194.167 53.5133 194.267 53.84C194.367 54.16 194.374 54.53 194.287 54.95L193.677 58H193.477L194.087 54.95C194.207 54.3433 194.134 53.8667 193.867 53.52C193.607 53.1667 193.157 52.99 192.517 52.99C191.864 52.99 191.317 53.1733 190.877 53.54C190.437 53.9 190.147 54.43 190.007 55.13L189.437 58H189.237L190.267 52.83H190.467L190.167 54.33L190.067 54.38C190.314 53.8267 190.651 53.4267 191.077 53.18C191.504 52.9267 191.991 52.8 192.537 52.8ZM198.067 58.03C197.594 58.03 197.184 57.9467 196.837 57.78C196.497 57.6133 196.237 57.3733 196.057 57.06C195.877 56.74 195.787 56.3533 195.787 55.9C195.787 55.3133 195.907 54.7867 196.147 54.32C196.387 53.8533 196.714 53.4833 197.127 53.21C197.547 52.9367 198.021 52.8 198.547 52.8C198.987 52.8 199.364 52.8833 199.677 53.05C199.991 53.2167 200.231 53.4567 200.397 53.77C200.571 54.0833 200.657 54.46 200.657 54.9C200.657 54.9867 200.651 55.0767 200.637 55.17C200.631 55.2567 200.621 55.3367 200.607 55.41H195.947L195.987 55.22H200.517L200.437 55.33C200.517 54.8233 200.484 54.3967 200.337 54.05C200.191 53.7033 199.961 53.44 199.647 53.26C199.341 53.08 198.974 52.99 198.547 52.99C198.061 52.99 197.621 53.1167 197.227 53.37C196.841 53.6233 196.534 53.97 196.307 54.41C196.087 54.8433 195.977 55.34 195.977 55.9C195.977 56.5267 196.157 57.0067 196.517 57.34C196.877 57.6733 197.397 57.84 198.077 57.84C198.471 57.84 198.831 57.7733 199.157 57.64C199.484 57.5 199.751 57.31 199.957 57.07L200.077 57.2C199.871 57.4467 199.587 57.6467 199.227 57.8C198.874 57.9533 198.487 58.03 198.067 58.03ZM201.806 58L202.836 52.83H203.036L202.716 54.43L202.666 54.38C202.879 53.8867 203.183 53.5 203.576 53.22C203.969 52.94 204.469 52.8 205.076 52.8L205.036 53C205.023 53 205.006 53 204.986 53C204.973 53 204.959 53 204.946 53C204.313 53 203.793 53.1967 203.386 53.59C202.979 53.9767 202.699 54.5467 202.546 55.3L202.006 58H201.806Z" fill="#303030"/>
<path d="M87.3438 42V21.0527H88.8819L98.3301 40.1982L107.192 21.0527H108.584V42H107.192V23.8799L98.8721 42H97.6124L88.7354 23.7334V42H87.3438ZM129.881 42H128.24L137.718 21.0527H139.549L149.071 42H147.24L144.134 34.9688H134.744L135.199 33.6504H143.563L138.538 22.2539L129.881 42ZM170.998 21.0527V42H169.459V21.0527H170.998ZM193.232 42V21.0527H201.875C205.664 21.0527 207.558 22.7275 207.558 26.0771C207.558 28.9775 205.503 31.0332 201.391 32.2441L208.466 42H206.357L199.399 32.2881V31.248C203.696 30.6133 205.844 28.9287 205.844 26.1943C205.844 23.6748 204.438 22.415 201.626 22.415H194.77V42H193.232Z" fill="#303030"/>
<defs>
<filter id="filter0_f_7_11" x="0.0171967" y="14.0236" width="29.4543" height="34.3157" filterUnits="userSpaceOnUse" color-interpolation-filters="sRGB">
<feFlood flood-opacity="0" result="BackgroundImageFix"/>
<feBlend mode="normal" in="SourceGraphic" in2="BackgroundImageFix" result="shape"/>
<feGaussianBlur stdDeviation="2" result="effect1_foregroundBlur_7_11"/>
</filter>
<filter id="filter1_f_7_11" x="35.8079" y="10.8332" width="32.0856" height="35.577" filterUnits="userSpaceOnUse" color-interpolation-filters="sRGB">
<feFlood flood-opacity="0" result="BackgroundImageFix"/>
<feBlend mode="normal" in="SourceGraphic" in2="BackgroundImageFix" result="shape"/>
<feGaussianBlur stdDeviation="2" result="effect1_foregroundBlur_7_11"/>
</filter>
<filter id="filter2_d_7_11" x="-3.05176e-05" y="0" width="68" height="68.251" filterUnits="userSpaceOnUse" color-interpolation-filters="sRGB">
<feFlood flood-opacity="0" result="BackgroundImageFix"/>
<feColorMatrix in="SourceAlpha" type="matrix" values="0 0 0 0 0 0 0 0 0 0 0 0 0 0 0 0 0 0 127 0" result="hardAlpha"/>
<feOffset dy="4"/>
<feGaussianBlur stdDeviation="2"/>
<feComposite in2="hardAlpha" operator="out"/>
<feColorMatrix type="matrix" values="0 0 0 0 0 0 0 0 0 0 0 0 0 0 0 0 0 0 0.25 0"/>
<feBlend mode="normal" in2="BackgroundImageFix" result="effect1_dropShadow_7_11"/>
<feBlend mode="normal" in="SourceGraphic" in2="effect1_dropShadow_7_11" result="shape"/>
</filter>
<linearGradient id="paint0_linear_7_11" x1="63.2468" y1="60.251" x2="3.99997" y2="60.251" gradientUnits="userSpaceOnUse">
<stop offset="0.0102124" stop-color="#9A7932"/>
<stop offset="0.100456" stop-color="#9A7932"/>
<stop offset="0.269215" stop-color="#BA994C"/>
<stop offset="0.490321" stop-color="#E1BF6A"/>
<stop offset="0.717483" stop-color="#B49344"/>
<stop offset="0.90558" stop-color="#947429"/>
<stop offset="0.987564" stop-color="#947429"/>
</linearGradient>
</defs>
</svg>
