<svg width="1962" height="218" viewBox="0 0 1962 218" fill="none" xmlns="http://www.w3.org/2000/svg">
<path d="M164.918 150.5L221.793 210V76.9999L164.918 150.5Z" fill="#765D21"/>
<path d="M12.668 209.125V78.7499L71.293 152.154L12.668 209.125Z" fill="#765D21"/>
<g filter="url(#filter0_f_8_24)">
<ellipse cx="55.3388" cy="20.905" rx="55.3388" ry="20.905" transform="matrix(-0.604787 -0.796387 -0.796387 0.604787 100.233 140.108)" fill="#2C2C2C" fill-opacity="0.1"/>
</g>
<g filter="url(#filter1_f_8_24)">
<ellipse cx="179.448" cy="99.7586" rx="56.1058" ry="30.3661" transform="rotate(-52.1123 179.448 99.7586)" fill="#2C2C2C" fill-opacity="0.1"/>
</g>
<g filter="url(#filter2_d_8_24)">
<path d="M116.793 131.25L12.668 0V79.625L71.293 153.029L116.793 210L164.712 150.5L221.793 79.625V0L116.793 131.25Z" fill="url(#paint0_linear_8_24)"/>
</g>
<path d="M307.624 151V61.4H324.776L362.92 124.632H353.832L391.336 61.4H408.36L408.616 151H389.16L389.032 91.224H392.616L362.664 141.528H353.32L322.728 91.224H327.08V151H307.624ZM441.138 151L481.074 61.4H501.554L541.618 151H519.858L487.09 71.896H495.282L462.386 151H441.138ZM461.106 131.8L466.61 116.056H512.69L518.322 131.8H461.106ZM573.954 151V61.4H594.69V151H573.954ZM638.994 151V61.4H677.778C685.799 61.4 692.711 62.7227 698.514 65.368C704.317 67.928 708.797 71.64 711.954 76.504C715.111 81.368 716.69 87.1707 716.69 93.912C716.69 100.568 715.111 106.328 711.954 111.192C708.797 115.971 704.317 119.64 698.514 122.2C692.711 124.76 685.799 126.04 677.778 126.04H650.514L659.73 116.952V151H638.994ZM695.954 151L673.554 118.488H695.698L718.354 151H695.954ZM659.73 119.256L650.514 109.528H676.626C683.026 109.528 687.805 108.163 690.962 105.432C694.119 102.616 695.698 98.776 695.698 93.912C695.698 88.9627 694.119 85.1227 690.962 82.392C687.805 79.6613 683.026 78.296 676.626 78.296H650.514L659.73 68.44V119.256ZM834.521 97.496H877.657V113.624H834.521V97.496ZM836.057 134.36H884.825V151H815.449V61.4H883.161V78.04H836.057V134.36ZM924.364 151V61.4H941.516L994.38 125.912H986.06V61.4H1006.54V151H989.516L936.524 86.488H944.844V151H924.364ZM1069.34 151V78.296H1040.67V61.4H1118.75V78.296H1090.08V151H1069.34ZM1172.02 97.496H1215.15V113.624H1172.02V97.496ZM1173.55 134.36H1222.32V151H1152.94V61.4H1220.66V78.04H1173.55V134.36ZM1261.86 151V61.4H1300.64C1308.66 61.4 1315.58 62.7227 1321.38 65.368C1327.18 67.928 1331.66 71.64 1334.82 76.504C1337.98 81.368 1339.55 87.1707 1339.55 93.912C1339.55 100.568 1337.98 106.328 1334.82 111.192C1331.66 115.971 1327.18 119.64 1321.38 122.2C1315.58 124.76 1308.66 126.04 1300.64 126.04H1273.38L1282.59 116.952V151H1261.86ZM1318.82 151L1296.42 118.488H1318.56L1341.22 151H1318.82ZM1282.59 119.256L1273.38 109.528H1299.49C1305.89 109.528 1310.67 108.163 1313.83 105.432C1316.98 102.616 1318.56 98.776 1318.56 93.912C1318.56 88.9627 1316.98 85.1227 1313.83 82.392C1310.67 79.6613 1305.89 78.296 1299.49 78.296H1273.38L1282.59 68.44V119.256ZM1379.02 151V61.4H1417.81C1425.83 61.4 1432.74 62.7227 1438.54 65.368C1444.35 67.928 1448.83 71.64 1451.98 76.504C1455.14 81.368 1456.72 87.1707 1456.72 93.912C1456.72 100.568 1455.14 106.328 1451.98 111.192C1448.83 116.056 1444.35 119.811 1438.54 122.456C1432.74 125.016 1425.83 126.296 1417.81 126.296H1390.54L1399.76 116.952V151H1379.02ZM1399.76 119.256L1390.54 109.4H1416.66C1423.06 109.4 1427.83 108.035 1430.99 105.304C1434.15 102.573 1435.73 98.776 1435.73 93.912C1435.73 88.9627 1434.15 85.1227 1430.99 82.392C1427.83 79.6613 1423.06 78.296 1416.66 78.296H1390.54L1399.76 68.44V119.256ZM1494.56 151V61.4H1533.35C1541.37 61.4 1548.28 62.7227 1554.08 65.368C1559.89 67.928 1564.37 71.64 1567.52 76.504C1570.68 81.368 1572.26 87.1707 1572.26 93.912C1572.26 100.568 1570.68 106.328 1567.52 111.192C1564.37 115.971 1559.89 119.64 1554.08 122.2C1548.28 124.76 1541.37 126.04 1533.35 126.04H1506.08L1515.3 116.952V151H1494.56ZM1551.52 151L1529.12 118.488H1551.27L1573.92 151H1551.52ZM1515.3 119.256L1506.08 109.528H1532.2C1538.6 109.528 1543.37 108.163 1546.53 105.432C1549.69 102.616 1551.27 98.776 1551.27 93.912C1551.27 88.9627 1549.69 85.1227 1546.53 82.392C1543.37 79.6613 1538.6 78.296 1532.2 78.296H1506.08L1515.3 68.44V119.256ZM1611.73 151V61.4H1632.46V151H1611.73ZM1706.21 152.536C1699.04 152.536 1692.17 151.597 1685.6 149.72C1679.03 147.757 1673.74 145.24 1669.73 142.168L1676.77 126.552C1680.61 129.283 1685.13 131.544 1690.34 133.336C1695.63 135.043 1700.96 135.896 1706.34 135.896C1710.43 135.896 1713.72 135.512 1716.19 134.744C1718.75 133.891 1720.63 132.739 1721.83 131.288C1723.02 129.837 1723.62 128.173 1723.62 126.296C1723.62 123.907 1722.68 122.029 1720.8 120.664C1718.92 119.213 1716.45 118.061 1713.38 117.208C1710.31 116.269 1706.89 115.416 1703.14 114.648C1699.47 113.795 1695.76 112.771 1692 111.576C1688.33 110.381 1684.96 108.845 1681.89 106.968C1678.82 105.091 1676.3 102.616 1674.34 99.544C1672.46 96.472 1671.52 92.5467 1671.52 87.768C1671.52 82.648 1672.89 77.9973 1675.62 73.816C1678.43 69.5493 1682.61 66.1787 1688.16 63.704C1693.79 61.144 1700.83 59.864 1709.28 59.864C1714.91 59.864 1720.46 60.5467 1725.92 61.912C1731.38 63.192 1736.2 65.1547 1740.39 67.8L1733.99 83.544C1729.8 81.1547 1725.62 79.4053 1721.44 78.296C1717.26 77.1013 1713.16 76.504 1709.15 76.504C1705.14 76.504 1701.86 76.9733 1699.3 77.912C1696.74 78.8507 1694.9 80.088 1693.79 81.624C1692.68 83.0747 1692.13 84.7813 1692.13 86.744C1692.13 89.048 1693.07 90.9253 1694.95 92.376C1696.82 93.7413 1699.3 94.8507 1702.37 95.704C1705.44 96.5573 1708.81 97.4107 1712.48 98.264C1716.24 99.1173 1719.95 100.099 1723.62 101.208C1727.37 102.317 1730.79 103.811 1733.86 105.688C1736.93 107.565 1739.4 110.04 1741.28 113.112C1743.24 116.184 1744.23 120.067 1744.23 124.76C1744.23 129.795 1742.82 134.403 1740 138.584C1737.19 142.765 1732.96 146.136 1727.33 148.696C1721.78 151.256 1714.74 152.536 1706.21 152.536ZM1800.51 97.496H1843.64V113.624H1800.51V97.496ZM1802.04 134.36H1850.81V151H1781.43V61.4H1849.15V78.04H1802.04V134.36ZM1919.79 152.536C1912.62 152.536 1905.75 151.597 1899.18 149.72C1892.61 147.757 1887.32 145.24 1883.31 142.168L1890.35 126.552C1894.19 129.283 1898.71 131.544 1903.92 133.336C1909.21 135.043 1914.54 135.896 1919.92 135.896C1924.01 135.896 1927.3 135.512 1929.77 134.744C1932.33 133.891 1934.21 132.739 1935.4 131.288C1936.6 129.837 1937.2 128.173 1937.2 126.296C1937.2 123.907 1936.26 122.029 1934.38 120.664C1932.5 119.213 1930.03 118.061 1926.96 117.208C1923.88 116.269 1920.47 115.416 1916.72 114.648C1913.05 113.795 1909.34 112.771 1905.58 111.576C1901.91 110.381 1898.54 108.845 1895.47 106.968C1892.4 105.091 1889.88 102.616 1887.92 99.544C1886.04 96.472 1885.1 92.5467 1885.1 87.768C1885.1 82.648 1886.47 77.9973 1889.2 73.816C1892.01 69.5493 1896.19 66.1787 1901.74 63.704C1907.37 61.144 1914.41 59.864 1922.86 59.864C1928.49 59.864 1934.04 60.5467 1939.5 61.912C1944.96 63.192 1949.78 65.1547 1953.96 67.8L1947.56 83.544C1943.38 81.1547 1939.2 79.4053 1935.02 78.296C1930.84 77.1013 1926.74 76.504 1922.73 76.504C1918.72 76.504 1915.44 76.9733 1912.88 77.912C1910.32 78.8507 1908.48 80.088 1907.37 81.624C1906.26 83.0747 1905.71 84.7813 1905.71 86.744C1905.71 89.048 1906.65 90.9253 1908.52 92.376C1910.4 93.7413 1912.88 94.8507 1915.95 95.704C1919.02 96.5573 1922.39 97.4107 1926.06 98.264C1929.82 99.1173 1933.53 100.099 1937.2 101.208C1940.95 102.317 1944.36 103.811 1947.44 105.688C1950.51 107.565 1952.98 110.04 1954.86 113.112C1956.82 116.184 1957.8 120.067 1957.8 124.76C1957.8 129.795 1956.4 134.403 1953.58 138.584C1950.76 142.765 1946.54 146.136 1940.91 148.696C1935.36 151.256 1928.32 152.536 1919.79 152.536Z" fill="#303030"/>
<defs>
<filter id="filter0_f_8_24" x="8.72806" y="58.8195" width="82.7773" height="99.7213" filterUnits="userSpaceOnUse" color-interpolation-filters="sRGB">
<feFlood flood-opacity="0" result="BackgroundImageFix"/>
<feBlend mode="normal" in="SourceGraphic" in2="BackgroundImageFix" result="shape"/>
<feGaussianBlur stdDeviation="2" result="effect1_foregroundBlur_8_24"/>
</filter>
<filter id="filter1_f_8_24" x="133.474" y="47.6999" width="91.9484" height="104.117" filterUnits="userSpaceOnUse" color-interpolation-filters="sRGB">
<feFlood flood-opacity="0" result="BackgroundImageFix"/>
<feBlend mode="normal" in="SourceGraphic" in2="BackgroundImageFix" result="shape"/>
<feGaussianBlur stdDeviation="2" result="effect1_foregroundBlur_8_24"/>
</filter>
<filter id="filter2_d_8_24" x="8.66797" y="0" width="217.125" height="218" filterUnits="userSpaceOnUse" color-interpolation-filters="sRGB">
<feFlood flood-opacity="0" result="BackgroundImageFix"/>
<feColorMatrix in="SourceAlpha" type="matrix" values="0 0 0 0 0 0 0 0 0 0 0 0 0 0 0 0 0 0 127 0" result="hardAlpha"/>
<feOffset dy="4"/>
<feGaussianBlur stdDeviation="2"/>
<feComposite in2="hardAlpha" operator="out"/>
<feColorMatrix type="matrix" values="0 0 0 0 0 0 0 0 0 0 0 0 0 0 0 0 0 0 0.25 0"/>
<feBlend mode="normal" in2="BackgroundImageFix" result="effect1_dropShadow_8_24"/>
<feBlend mode="normal" in="SourceGraphic" in2="effect1_dropShadow_8_24" result="shape"/>
</filter>
<linearGradient id="paint0_linear_8_24" x1="219.168" y1="210" x2="12.668" y2="210" gradientUnits="userSpaceOnUse">
<stop offset="0.0102124" stop-color="#9A7932"/>
<stop offset="0.100456" stop-color="#9A7932"/>
<stop offset="0.269215" stop-color="#BA994C"/>
<stop offset="0.490321" stop-color="#E1BF6A"/>
<stop offset="0.717483" stop-color="#B49344"/>
<stop offset="0.90558" stop-color="#947429"/>
<stop offset="0.987564" stop-color="#947429"/>
</linearGradient>
</defs>
</svg>
