<svg width="294" height="117" viewBox="0 0 294 117" fill="none" xmlns="http://www.w3.org/2000/svg">
<path d="M84.9135 78.3644L114.197 109V40.5205L84.9135 78.3644Z" fill="#765D21"/>
<path d="M6.52252 108.549V41.4216L36.7075 79.2163L6.52252 108.549Z" fill="#765D21"/>
<g filter="url(#filter0_f_7_11)">
<ellipse cx="28.493" cy="10.7636" rx="28.493" ry="10.7636" transform="matrix(-0.604787 -0.796387 -0.796387 0.604787 51.6084 73.0139)" fill="#2C2C2C" fill-opacity="0.1"/>
</g>
<g filter="url(#filter1_f_7_11)">
<ellipse cx="92.3946" cy="52.2386" rx="28.8879" ry="15.635" transform="rotate(-52.1123 92.3946 52.2386)" fill="#2C2C2C" fill-opacity="0.1"/>
</g>
<g filter="url(#filter2_d_7_11)">
<path d="M60.1347 68.453L6.52252 0.874557V41.8721L36.7075 79.6668L60.1347 109L84.8076 78.3645L114.197 41.8721V0.874557L60.1347 68.453Z" fill="url(#paint0_linear_7_11)"/>
</g>
<path d="M144.12 86.376C143.84 86.376 143.572 86.328 143.316 86.232C143.06 86.136 142.856 86 142.704 85.824L143.052 85.38C143.188 85.54 143.352 85.656 143.544 85.728C143.728 85.808 143.94 85.848 144.18 85.848C144.46 85.848 144.716 85.772 144.948 85.62C145.188 85.468 145.444 85.184 145.716 84.768L146.376 83.772L146.472 83.664L150.3 77.736H150.924L146.244 84.924C146.004 85.292 145.772 85.58 145.548 85.788C145.332 86.004 145.108 86.156 144.876 86.244C144.652 86.332 144.4 86.376 144.12 86.376ZM146.292 84.156L144.66 77.736H145.272L146.748 83.628L146.292 84.156ZM153.476 84.048C152.916 84.048 152.428 83.944 152.012 83.736C151.596 83.52 151.272 83.216 151.04 82.824C150.816 82.432 150.704 81.972 150.704 81.444C150.704 80.724 150.856 80.084 151.16 79.524C151.472 78.956 151.896 78.508 152.432 78.18C152.976 77.852 153.596 77.688 154.292 77.688C154.86 77.688 155.348 77.796 155.756 78.012C156.172 78.22 156.492 78.52 156.716 78.912C156.948 79.296 157.064 79.756 157.064 80.292C157.064 81.012 156.908 81.656 156.596 82.224C156.292 82.784 155.868 83.228 155.324 83.556C154.788 83.884 154.172 84.048 153.476 84.048ZM153.524 83.508C154.092 83.508 154.596 83.372 155.036 83.1C155.476 82.828 155.824 82.452 156.08 81.972C156.336 81.484 156.464 80.936 156.464 80.328C156.464 79.656 156.268 79.14 155.876 78.78C155.492 78.412 154.948 78.228 154.244 78.228C153.684 78.228 153.18 78.368 152.732 78.648C152.292 78.92 151.944 79.296 151.688 79.776C151.432 80.256 151.304 80.8 151.304 81.408C151.304 82.072 151.496 82.588 151.88 82.956C152.272 83.324 152.82 83.508 153.524 83.508ZM160.833 84.048C160.281 84.048 159.825 83.94 159.465 83.724C159.113 83.5 158.873 83.188 158.745 82.788C158.617 82.38 158.605 81.904 158.709 81.36L159.429 77.736H160.029L159.309 81.36C159.181 82.024 159.253 82.548 159.525 82.932C159.805 83.316 160.293 83.508 160.989 83.508C161.701 83.508 162.293 83.312 162.765 82.92C163.245 82.52 163.561 81.928 163.713 81.144L164.397 77.736H164.997L163.749 84H163.161L163.521 82.188L163.677 82.344C163.381 82.936 162.985 83.368 162.489 83.64C162.001 83.912 161.449 84.048 160.833 84.048ZM166.269 84L167.517 77.736H168.105L167.721 79.62L167.649 79.404C167.921 78.836 168.289 78.408 168.753 78.12C169.217 77.832 169.801 77.688 170.505 77.688L170.397 78.276C170.365 78.276 170.333 78.276 170.301 78.276C170.269 78.268 170.237 78.264 170.205 78.264C169.501 78.264 168.917 78.476 168.453 78.9C167.997 79.316 167.685 79.944 167.517 80.784L166.869 84H166.269ZM175.934 84.048C175.59 84.048 175.298 83.976 175.058 83.832C174.826 83.688 174.666 83.48 174.578 83.208C174.49 82.936 174.482 82.612 174.554 82.236L175.73 76.368H176.33L175.166 82.188C175.078 82.628 175.106 82.964 175.25 83.196C175.402 83.42 175.678 83.532 176.078 83.532C176.27 83.532 176.45 83.504 176.618 83.448C176.794 83.384 176.954 83.296 177.098 83.184L177.278 83.628C177.086 83.78 176.87 83.888 176.63 83.952C176.398 84.016 176.166 84.048 175.934 84.048ZM174.194 78.252L174.29 77.736H178.046L177.95 78.252H174.194ZM181.392 84.048C180.808 84.048 180.3 83.944 179.868 83.736C179.436 83.52 179.104 83.216 178.872 82.824C178.648 82.432 178.536 81.964 178.536 81.42C178.536 80.708 178.684 80.072 178.98 79.512C179.284 78.952 179.692 78.508 180.204 78.18C180.724 77.852 181.308 77.688 181.956 77.688C182.508 77.688 182.98 77.792 183.372 78C183.764 78.208 184.068 78.508 184.284 78.9C184.508 79.284 184.62 79.752 184.62 80.304C184.62 80.424 184.612 80.544 184.596 80.664C184.58 80.784 184.564 80.896 184.548 81H178.992L179.076 80.532H184.26L184.02 80.736C184.108 80.184 184.072 79.724 183.912 79.356C183.752 78.98 183.5 78.696 183.156 78.504C182.82 78.304 182.416 78.204 181.944 78.204C181.4 78.204 180.912 78.344 180.48 78.624C180.056 78.896 179.724 79.272 179.484 79.752C179.244 80.224 179.124 80.772 179.124 81.396C179.124 82.076 179.32 82.6 179.712 82.968C180.104 83.328 180.68 83.508 181.44 83.508C181.888 83.508 182.296 83.436 182.664 83.292C183.04 83.14 183.348 82.932 183.588 82.668L183.864 83.088C183.592 83.384 183.236 83.62 182.796 83.796C182.364 83.964 181.896 84.048 181.392 84.048ZM188.528 84.048C187.952 84.048 187.452 83.944 187.028 83.736C186.604 83.52 186.276 83.216 186.044 82.824C185.82 82.432 185.708 81.972 185.708 81.444C185.708 80.716 185.86 80.072 186.164 79.512C186.476 78.944 186.904 78.5 187.448 78.18C187.992 77.852 188.612 77.688 189.308 77.688C189.868 77.688 190.348 77.788 190.748 77.988C191.156 78.18 191.468 78.472 191.684 78.864L191.192 79.164C191 78.844 190.744 78.608 190.424 78.456C190.104 78.304 189.72 78.228 189.272 78.228C188.696 78.228 188.184 78.368 187.736 78.648C187.296 78.92 186.948 79.296 186.692 79.776C186.436 80.256 186.308 80.8 186.308 81.408C186.308 82.072 186.504 82.588 186.896 82.956C187.288 83.324 187.848 83.508 188.576 83.508C188.992 83.508 189.38 83.432 189.74 83.28C190.108 83.12 190.412 82.892 190.652 82.596L191.072 82.932C190.8 83.284 190.436 83.56 189.98 83.76C189.532 83.952 189.048 84.048 188.528 84.048ZM196.543 77.688C197.111 77.688 197.571 77.8 197.923 78.024C198.283 78.24 198.527 78.552 198.655 78.96C198.791 79.36 198.803 79.832 198.691 80.376L197.971 84H197.371L198.091 80.376C198.227 79.712 198.151 79.188 197.863 78.804C197.583 78.42 197.091 78.228 196.387 78.228C195.675 78.228 195.079 78.428 194.599 78.828C194.119 79.22 193.799 79.808 193.639 80.592L192.955 84H192.355L194.131 75.096H194.731L193.843 79.548L193.675 79.392C193.971 78.8 194.367 78.368 194.863 78.096C195.359 77.824 195.919 77.688 196.543 77.688ZM204.617 77.688C205.185 77.688 205.645 77.8 205.997 78.024C206.357 78.24 206.601 78.552 206.729 78.96C206.865 79.36 206.877 79.832 206.765 80.376L206.045 84H205.445L206.165 80.376C206.301 79.712 206.225 79.188 205.937 78.804C205.657 78.42 205.165 78.228 204.461 78.228C203.749 78.228 203.153 78.428 202.673 78.828C202.193 79.22 201.873 79.808 201.713 80.592L201.029 84H200.429L201.677 77.736H202.265L201.905 79.548L201.749 79.392C202.045 78.8 202.441 78.368 202.937 78.096C203.433 77.824 203.993 77.688 204.617 77.688ZM211.179 84.048C210.619 84.048 210.131 83.944 209.715 83.736C209.299 83.52 208.975 83.216 208.743 82.824C208.519 82.432 208.407 81.972 208.407 81.444C208.407 80.724 208.559 80.084 208.863 79.524C209.175 78.956 209.599 78.508 210.135 78.18C210.679 77.852 211.299 77.688 211.995 77.688C212.563 77.688 213.051 77.796 213.459 78.012C213.875 78.22 214.195 78.52 214.419 78.912C214.651 79.296 214.767 79.756 214.767 80.292C214.767 81.012 214.611 81.656 214.299 82.224C213.995 82.784 213.571 83.228 213.027 83.556C212.491 83.884 211.875 84.048 211.179 84.048ZM211.227 83.508C211.795 83.508 212.299 83.372 212.739 83.1C213.179 82.828 213.527 82.452 213.783 81.972C214.039 81.484 214.167 80.936 214.167 80.328C214.167 79.656 213.971 79.14 213.579 78.78C213.195 78.412 212.651 78.228 211.947 78.228C211.387 78.228 210.883 78.368 210.435 78.648C209.995 78.92 209.647 79.296 209.391 79.776C209.135 80.256 209.007 80.8 209.007 81.408C209.007 82.072 209.199 82.588 209.583 82.956C209.975 83.324 210.523 83.508 211.227 83.508ZM215.945 84L217.721 75.096H218.321L216.545 84H215.945ZM221.75 84.048C221.19 84.048 220.702 83.944 220.286 83.736C219.87 83.52 219.546 83.216 219.314 82.824C219.09 82.432 218.978 81.972 218.978 81.444C218.978 80.724 219.13 80.084 219.434 79.524C219.746 78.956 220.17 78.508 220.706 78.18C221.25 77.852 221.87 77.688 222.566 77.688C223.134 77.688 223.622 77.796 224.03 78.012C224.446 78.22 224.766 78.52 224.99 78.912C225.222 79.296 225.338 79.756 225.338 80.292C225.338 81.012 225.182 81.656 224.87 82.224C224.566 82.784 224.142 83.228 223.598 83.556C223.062 83.884 222.446 84.048 221.75 84.048ZM221.798 83.508C222.366 83.508 222.87 83.372 223.31 83.1C223.75 82.828 224.098 82.452 224.354 81.972C224.61 81.484 224.738 80.936 224.738 80.328C224.738 79.656 224.542 79.14 224.15 78.78C223.766 78.412 223.222 78.228 222.518 78.228C221.958 78.228 221.454 78.368 221.006 78.648C220.566 78.92 220.218 79.296 219.962 79.776C219.706 80.256 219.578 80.8 219.578 81.408C219.578 82.072 219.77 82.588 220.154 82.956C220.546 83.324 221.094 83.508 221.798 83.508ZM228.747 86.376C228.171 86.376 227.651 86.288 227.187 86.112C226.723 85.944 226.339 85.704 226.035 85.392L226.419 84.948C226.675 85.228 227.007 85.444 227.415 85.596C227.831 85.756 228.291 85.836 228.795 85.836C229.635 85.836 230.287 85.64 230.751 85.248C231.223 84.856 231.539 84.248 231.699 83.424L232.059 81.624L232.359 80.724L232.443 79.788L232.851 77.736H233.427L232.311 83.328C232.103 84.4 231.707 85.176 231.123 85.656C230.547 86.136 229.755 86.376 228.747 86.376ZM229.179 83.772C228.627 83.772 228.143 83.672 227.727 83.472C227.319 83.272 227.003 82.984 226.779 82.608C226.555 82.232 226.443 81.788 226.443 81.276C226.443 80.764 226.531 80.292 226.707 79.86C226.883 79.428 227.127 79.048 227.439 78.72C227.759 78.392 228.135 78.14 228.567 77.964C229.007 77.78 229.487 77.688 230.007 77.688C230.535 77.688 230.995 77.78 231.387 77.964C231.779 78.148 232.083 78.42 232.299 78.78C232.523 79.132 232.635 79.572 232.635 80.1C232.643 80.788 232.503 81.408 232.215 81.96C231.927 82.512 231.523 82.952 231.003 83.28C230.491 83.608 229.883 83.772 229.179 83.772ZM229.287 83.232C229.863 83.232 230.371 83.104 230.811 82.848C231.251 82.584 231.599 82.224 231.855 81.768C232.119 81.312 232.251 80.792 232.251 80.208C232.251 79.584 232.051 79.1 231.651 78.756C231.259 78.404 230.711 78.228 230.007 78.228C229.439 78.228 228.931 78.36 228.483 78.624C228.043 78.88 227.691 79.236 227.427 79.692C227.171 80.148 227.043 80.668 227.043 81.252C227.043 81.876 227.239 82.364 227.631 82.716C228.031 83.06 228.583 83.232 229.287 83.232ZM234.179 86.376C233.899 86.376 233.631 86.328 233.375 86.232C233.119 86.136 232.915 86 232.763 85.824L233.111 85.38C233.247 85.54 233.411 85.656 233.603 85.728C233.787 85.808 233.999 85.848 234.239 85.848C234.519 85.848 234.775 85.772 235.007 85.62C235.247 85.468 235.503 85.184 235.775 84.768L236.435 83.772L236.531 83.664L240.359 77.736H240.983L236.303 84.924C236.063 85.292 235.831 85.58 235.607 85.788C235.391 86.004 235.167 86.156 234.935 86.244C234.711 86.332 234.459 86.376 234.179 86.376ZM236.351 84.156L234.719 77.736H235.331L236.807 83.628L236.351 84.156ZM247.5 84.048C246.956 84.048 246.488 83.952 246.096 83.76C245.712 83.56 245.42 83.276 245.22 82.908C245.02 82.532 244.916 82.08 244.908 81.552C244.908 80.8 245.048 80.136 245.328 79.56C245.616 78.976 246.016 78.52 246.528 78.192C247.048 77.856 247.652 77.688 248.34 77.688C248.884 77.688 249.356 77.792 249.756 78C250.164 78.208 250.48 78.508 250.704 78.9C250.936 79.292 251.052 79.756 251.052 80.292C251.052 80.836 250.964 81.336 250.788 81.792C250.612 82.248 250.364 82.644 250.044 82.98C249.732 83.316 249.36 83.58 248.928 83.772C248.496 83.956 248.02 84.048 247.5 84.048ZM243.648 86.328L245.364 77.736H245.952L245.556 79.692L245.22 80.784L245.136 81.936L244.248 86.328H243.648ZM247.512 83.508C248.08 83.508 248.584 83.372 249.024 83.1C249.464 82.828 249.808 82.452 250.056 81.972C250.312 81.484 250.44 80.936 250.44 80.328C250.44 79.656 250.244 79.14 249.852 78.78C249.468 78.412 248.924 78.228 248.22 78.228C247.66 78.228 247.156 78.364 246.708 78.636C246.268 78.908 245.92 79.284 245.664 79.764C245.408 80.244 245.28 80.792 245.28 81.408C245.28 82.072 245.476 82.588 245.868 82.956C246.26 83.324 246.808 83.508 247.512 83.508ZM254.818 84.048C254.282 84.048 253.81 83.944 253.402 83.736C252.994 83.528 252.678 83.228 252.454 82.836C252.23 82.444 252.118 81.98 252.118 81.444C252.118 80.9 252.202 80.4 252.37 79.944C252.546 79.488 252.794 79.092 253.114 78.756C253.434 78.42 253.81 78.16 254.242 77.976C254.674 77.784 255.146 77.688 255.658 77.688C256.21 77.688 256.678 77.788 257.062 77.988C257.446 78.18 257.738 78.464 257.938 78.84C258.146 79.208 258.25 79.656 258.25 80.184C258.258 80.928 258.118 81.592 257.83 82.176C257.55 82.76 257.15 83.22 256.63 83.556C256.118 83.884 255.514 84.048 254.818 84.048ZM254.938 83.508C255.506 83.508 256.01 83.372 256.45 83.1C256.89 82.828 257.238 82.452 257.494 81.972C257.75 81.484 257.878 80.936 257.878 80.328C257.878 79.656 257.682 79.14 257.29 78.78C256.906 78.412 256.362 78.228 255.658 78.228C255.098 78.228 254.594 78.368 254.146 78.648C253.706 78.92 253.358 79.296 253.102 79.776C252.846 80.256 252.718 80.8 252.718 81.408C252.718 82.072 252.91 82.588 253.294 82.956C253.686 83.324 254.234 83.508 254.938 83.508ZM257.218 84L257.602 82.044L257.95 80.952L258.034 79.8L258.442 77.736H259.042L257.794 84H257.218ZM260.312 84L261.56 77.736H262.148L261.764 79.62L261.692 79.404C261.964 78.836 262.332 78.408 262.796 78.12C263.26 77.832 263.844 77.688 264.548 77.688L264.44 78.276C264.408 78.276 264.376 78.276 264.344 78.276C264.312 78.268 264.28 78.264 264.248 78.264C263.544 78.264 262.96 78.476 262.496 78.9C262.04 79.316 261.728 79.944 261.56 80.784L260.912 84H260.312ZM267.07 84.048C266.726 84.048 266.434 83.976 266.194 83.832C265.962 83.688 265.802 83.48 265.714 83.208C265.626 82.936 265.618 82.612 265.69 82.236L266.866 76.368H267.466L266.302 82.188C266.214 82.628 266.242 82.964 266.386 83.196C266.538 83.42 266.814 83.532 267.214 83.532C267.406 83.532 267.586 83.504 267.754 83.448C267.93 83.384 268.09 83.296 268.234 83.184L268.414 83.628C268.222 83.78 268.006 83.888 267.766 83.952C267.534 84.016 267.302 84.048 267.07 84.048ZM265.33 78.252L265.426 77.736H269.182L269.086 78.252H265.33ZM274.179 77.688C274.747 77.688 275.207 77.8 275.559 78.024C275.919 78.24 276.163 78.552 276.291 78.96C276.427 79.36 276.439 79.832 276.327 80.376L275.607 84H275.007L275.727 80.376C275.863 79.712 275.787 79.188 275.499 78.804C275.219 78.42 274.727 78.228 274.023 78.228C273.311 78.228 272.715 78.428 272.235 78.828C271.755 79.22 271.435 79.808 271.275 80.592L270.591 84H269.991L271.239 77.736H271.827L271.467 79.548L271.311 79.392C271.607 78.8 272.003 78.368 272.499 78.096C272.995 77.824 273.555 77.688 274.179 77.688ZM280.826 84.048C280.242 84.048 279.734 83.944 279.302 83.736C278.87 83.52 278.538 83.216 278.306 82.824C278.082 82.432 277.97 81.964 277.97 81.42C277.97 80.708 278.118 80.072 278.414 79.512C278.718 78.952 279.126 78.508 279.638 78.18C280.158 77.852 280.742 77.688 281.39 77.688C281.942 77.688 282.414 77.792 282.806 78C283.198 78.208 283.502 78.508 283.718 78.9C283.942 79.284 284.054 79.752 284.054 80.304C284.054 80.424 284.046 80.544 284.03 80.664C284.014 80.784 283.998 80.896 283.982 81H278.426L278.51 80.532H283.694L283.454 80.736C283.542 80.184 283.506 79.724 283.346 79.356C283.186 78.98 282.934 78.696 282.59 78.504C282.254 78.304 281.85 78.204 281.378 78.204C280.834 78.204 280.346 78.344 279.914 78.624C279.49 78.896 279.158 79.272 278.918 79.752C278.678 80.224 278.558 80.772 278.558 81.396C278.558 82.076 278.754 82.6 279.146 82.968C279.538 83.328 280.114 83.508 280.874 83.508C281.322 83.508 281.73 83.436 282.098 83.292C282.474 83.14 282.782 82.932 283.022 82.668L283.298 83.088C283.026 83.384 282.67 83.62 282.23 83.796C281.798 83.964 281.33 84.048 280.826 84.048ZM285.238 84L286.486 77.736H287.074L286.69 79.62L286.618 79.404C286.89 78.836 287.258 78.408 287.722 78.12C288.186 77.832 288.77 77.688 289.474 77.688L289.366 78.276C289.334 78.276 289.302 78.276 289.27 78.276C289.238 78.268 289.206 78.264 289.174 78.264C288.47 78.264 287.886 78.476 287.422 78.9C286.966 79.316 286.654 79.944 286.486 80.784L285.838 84H285.238Z" fill="#303030"/>
<path d="M143.32 67V39H148.68L160.6 58.76H157.76L169.48 39H174.8L174.88 67H168.8L168.76 48.32H169.88L160.52 64.04H157.6L148.04 48.32H149.4V67H143.32ZM191.843 67L204.323 39H210.723L223.243 67H216.443L206.203 42.28H208.763L198.483 67H191.843ZM198.083 61L199.803 56.08H214.203L215.963 61H198.083ZM240.148 67V39H246.628V67H240.148ZM267.273 67V39H279.393C281.9 39 284.06 39.4133 285.873 40.24C287.686 41.04 289.086 42.2 290.073 43.72C291.06 45.24 291.553 47.0533 291.553 49.16C291.553 51.24 291.06 53.04 290.073 54.56C289.086 56.0533 287.686 57.2 285.873 58C284.06 58.8 281.9 59.2 279.393 59.2H270.873L273.753 56.36V67H267.273ZM285.073 67L278.073 56.84H284.993L292.073 67H285.073ZM273.753 57.08L270.873 54.04H279.033C281.033 54.04 282.526 53.6133 283.513 52.76C284.5 51.88 284.993 50.68 284.993 49.16C284.993 47.6133 284.5 46.4133 283.513 45.56C282.526 44.7067 281.033 44.28 279.033 44.28H270.873L273.753 41.2V57.08Z" fill="#303030"/>
<defs>
<filter id="filter0_f_7_11" x="2.55344" y="29.2193" width="46.5015" height="55.2257" filterUnits="userSpaceOnUse" color-interpolation-filters="sRGB">
<feFlood flood-opacity="0" result="BackgroundImageFix"/>
<feBlend mode="normal" in="SourceGraphic" in2="BackgroundImageFix" result="shape"/>
<feGaussianBlur stdDeviation="2" result="effect1_foregroundBlur_7_11"/>
</filter>
<filter id="filter1_f_7_11" x="66.7828" y="23.494" width="51.2236" height="57.4893" filterUnits="userSpaceOnUse" color-interpolation-filters="sRGB">
<feFlood flood-opacity="0" result="BackgroundImageFix"/>
<feBlend mode="normal" in="SourceGraphic" in2="BackgroundImageFix" result="shape"/>
<feGaussianBlur stdDeviation="2" result="effect1_foregroundBlur_7_11"/>
</filter>
<filter id="filter2_d_7_11" x="2.52252" y="0.874557" width="115.675" height="116.125" filterUnits="userSpaceOnUse" color-interpolation-filters="sRGB">
<feFlood flood-opacity="0" result="BackgroundImageFix"/>
<feColorMatrix in="SourceAlpha" type="matrix" values="0 0 0 0 0 0 0 0 0 0 0 0 0 0 0 0 0 0 127 0" result="hardAlpha"/>
<feOffset dy="4"/>
<feGaussianBlur stdDeviation="2"/>
<feComposite in2="hardAlpha" operator="out"/>
<feColorMatrix type="matrix" values="0 0 0 0 0 0 0 0 0 0 0 0 0 0 0 0 0 0 0.25 0"/>
<feBlend mode="normal" in2="BackgroundImageFix" result="effect1_dropShadow_7_11"/>
<feBlend mode="normal" in="SourceGraphic" in2="effect1_dropShadow_7_11" result="shape"/>
</filter>
<linearGradient id="paint0_linear_7_11" x1="112.846" y1="109" x2="6.52252" y2="109" gradientUnits="userSpaceOnUse">
<stop offset="0.0102124" stop-color="#9A7932"/>
<stop offset="0.100456" stop-color="#9A7932"/>
<stop offset="0.269215" stop-color="#BA994C"/>
<stop offset="0.490321" stop-color="#E1BF6A"/>
<stop offset="0.717483" stop-color="#B49344"/>
<stop offset="0.90558" stop-color="#947429"/>
<stop offset="0.987564" stop-color="#947429"/>
</linearGradient>
</defs>
</svg>
